HIERARCHY
ROOT Pelvis
{
	OFFSET 0.000000 0.000000 0.000000
	CHANNELS 6 Xposition Yposition Zposition Xrotation Yrotation Zrotation
	JOINT LeftUpLeg_virtual
	{
		OFFSET 0.000000 0.000000 0.000000
		CHANNELS 3 Xrotation Yrotation Zrotation
		JOINT LeftUpLeg
		{
			OFFSET 18.735201 -5.666702 -4.541200
			CHANNELS 3 Xrotation Yrotation Zrotation
			JOINT LeftLeg
			{
				OFFSET -0.021200 -31.938179 0.493100
				CHANNELS 3 Xrotation Yrotation Zrotation
				JOINT LeftFoot
				{
					OFFSET 0.021200 -31.938179 -4.336299
					CHANNELS 3 Xrotation Yrotation Zrotation
					JOINT LeftToeBase
					{
						OFFSET 0.943001 -26.722000 15.023500
						CHANNELS 3 Xrotation Yrotation Zrotation
						End Site
						{
							OFFSET 0 0 0
						}
					}
				}
			}
		}
	}
	JOINT RightUpLeg_virtual
	{
		OFFSET 0.000000 0.000000 0.000000
		CHANNELS 3 Xrotation Yrotation Zrotation
		JOINT RightUpLeg
		{
			OFFSET -18.735201 -5.666702 -4.541200
			CHANNELS 3 Xrotation Yrotation Zrotation
			JOINT RightLeg
			{
				OFFSET 0.018946 -31.938133 0.493100
				CHANNELS 3 Xrotation Yrotation Zrotation
				JOINT RightFoot
				{
					OFFSET -0.018946 -31.938126 -4.336299
					CHANNELS 3 Xrotation Yrotation Zrotation
					JOINT RightToeBase
					{
						OFFSET -0.943001 -26.722004 15.023500
						CHANNELS 3 Xrotation Yrotation Zrotation
						End Site
						{
							OFFSET 0 0 0
						}
					}
				}
			}
		}
	}
	JOINT Hips_virtual
	{
		OFFSET 0.000000 0.000000 0.000000
		CHANNELS 3 Xrotation Yrotation Zrotation
		JOINT Hips
		{
			OFFSET -0.000000 -0.000000 -0.000000
			CHANNELS 3 Xrotation Yrotation Zrotation
			JOINT Spine
			{
				OFFSET 0.000000 10.199997 -0.299500
				CHANNELS 3 Xrotation Yrotation Zrotation
				JOINT Spine1
				{
					OFFSET 0.000000 11.900002 -1.516600
					CHANNELS 3 Xrotation Yrotation Zrotation
					JOINT Spine2
					{
						OFFSET 0.000000 13.600006 -2.842500
						CHANNELS 3 Xrotation Yrotation Zrotation
						JOINT Neck_virtual
						{
							OFFSET 0.000000 0.000000 0.000000
							CHANNELS 3 Xrotation Yrotation Zrotation
							JOINT Neck
							{
								OFFSET 0.000000 9.624100 -2.890100
								CHANNELS 3 Xrotation Yrotation Zrotation
								JOINT Head
								{
									OFFSET 0.000000 14.068802 -1.351900
									CHANNELS 3 Xrotation Yrotation Zrotation
									End Site
									{
										OFFSET 0 0 0
									}
								}
							}
						}
						JOINT LeftShoulder_virtual
						{
							OFFSET 0.000000 0.000000 0.000000
							CHANNELS 3 Xrotation Yrotation Zrotation
							JOINT LeftShoulder
							{
								OFFSET 15.263000 10.923401 -0.547700
								CHANNELS 3 Xrotation Yrotation Zrotation
								JOINT LeftArm
								{
									OFFSET 25.438599 -2.830597 -13.032500
									CHANNELS 3 Xrotation Yrotation Zrotation
									JOINT LeftForeArm
									{
										OFFSET 29.960503 0.000000 0.000000
										CHANNELS 3 Xrotation Yrotation Zrotation
										JOINT LeftHand
										{
											OFFSET 27.849251 0.000000 0.000000
											CHANNELS 3 Xrotation Yrotation Zrotation
											End Site
											{
												OFFSET 0 0 0
											}
										}
									}
								}
							}
						}
						JOINT RightShoulder_virtual
						{
							OFFSET 0.000000 0.000000 0.000000
							CHANNELS 3 Xrotation Yrotation Zrotation
							JOINT RightShoulder
							{
								OFFSET -15.263000 10.923401 -0.547700
								CHANNELS 3 Xrotation Yrotation Zrotation
								JOINT RightArm
								{
									OFFSET -25.438599 -2.830597 -13.032500
									CHANNELS 3 Xrotation Yrotation Zrotation
									JOINT RightForeArm
									{
										OFFSET -29.960503 0.000000 0.000000
										CHANNELS 3 Xrotation Yrotation Zrotation
										JOINT RightHand
										{
											OFFSET -27.849251 0.000000 0.000000
											CHANNELS 3 Xrotation Yrotation Zrotation
											End Site
											{
												OFFSET 0 0 0
											}
										}
									}
								}
							}
						}
					}
				}
			}
		}
	}
}
MOTION
Frames: 13
Frame Time: 0.03333333
-3.526494 78.410347 3.057369 0.000000 0.000000 0.000000 11.660449 -49.374420 11.268412 -69.006972 20.606597 47.788149 51.256656 -22.124325 3.397183 2.960962 1.488329 -15.125360 0.000000 0.000000 0.000000 11.660449 -49.374420 11.268412 -33.116240 3.851183 -30.939808 58.819376 4.953896 -6.674913 -30.772837 -6.442859 30.151860 0.000000 0.000000 0.000000 11.660449 -49.374420 11.268412 0.000001 -0.000002 0.000000 10.972522 2.720484 -2.032877 6.100707 5.566525 -4.284679 0.000000 0.000000 0.000000 -5.786926 6.328150 -3.046183 0.458823 1.873393 -0.022544 0.000000 0.000000 0.000000 -5.786926 6.328150 -3.046183 -1.875340 -16.181743 -2.870471 -10.644671 2.164755 -45.510654 -22.862373 -25.786259 -15.871650 0.000000 0.000000 0.000000 -5.786926 6.328150 -3.046183 -5.074768 24.344983 1.482929 6.642444 -34.735009 57.610426 -21.032053 44.833867 19.961744 0.000000 0.000000 0.000000 
-3.553579 78.489662 2.938698 0.000000 0.000000 0.000000 11.463714 -49.684271 11.053859 -68.720616 20.625064 48.041751 51.013512 -22.070196 3.387460 3.035208 1.506846 -15.293541 0.000000 0.000000 0.000000 11.463714 -49.684271 11.053859 -33.231165 3.794518 -30.750372 58.785492 5.095618 -6.669579 -30.630977 -6.212525 29.956701 0.000000 0.000000 0.000000 11.463714 -49.684271 11.053859 0.000000 0.000004 0.000000 10.951301 2.722924 -2.043437 5.917138 5.588678 -4.389565 0.000000 0.000000 0.000000 -5.960385 6.358695 -3.163037 0.448137 1.919270 -0.008433 0.000000 0.000000 0.000000 -5.960385 6.358695 -3.163037 -1.850135 -16.049177 -2.794405 -9.956432 2.817338 -45.285910 -23.315197 -27.943279 -17.248427 0.000000 0.000000 0.000000 -5.960385 6.358695 -3.163037 -5.082252 24.342379 1.499010 5.825077 -34.063793 57.690148 -20.478437 43.293967 19.040915 0.000000 0.000000 0.000000 
-3.588142 78.567307 2.824461 0.000000 0.000000 0.000000 11.330482 -50.033509 10.892600 -68.446350 20.654668 48.337631 50.769015 -22.017547 3.362821 3.085618 1.537744 -15.474786 0.000000 0.000000 0.000000 11.330482 -50.033509 10.892600 -33.400687 3.763991 -30.554841 58.746785 5.253160 -6.658647 -30.474682 -5.964652 29.754756 0.000000 0.000000 0.000000 11.330482 -50.033509 10.892600 0.000000 -0.000001 0.000000 10.927428 2.724924 -2.043592 5.754459 5.620916 -4.465459 0.000000 0.000000 0.000000 -6.114668 6.395255 -3.246991 0.486590 1.949040 -0.059940 0.000000 0.000000 0.000000 -6.114668 6.395255 -3.246991 -1.856188 -16.125025 -2.793419 -9.304243 3.610388 -44.990613 -23.777459 -29.920702 -18.575195 0.000000 0.000000 0.000000 -6.114668 6.395255 -3.246991 -5.081655 24.149916 1.470715 7.290157 -35.178920 57.904479 -21.255088 45.591175 20.253102 0.000000 0.000000 0.000000 
-3.625432 78.645638 2.714649 0.000000 0.000000 0.000000 11.185405 -50.366054 10.755470 -68.104964 20.712374 48.523105 50.506927 -21.915878 3.407277 3.126918 1.588571 -15.710895 0.000000 0.000000 0.000000 11.185405 -50.366054 10.755470 -33.551914 3.750980 -30.397794 58.725297 5.407018 -6.648688 -30.336432 -5.732384 29.562155 0.000000 0.000000 0.000000 11.185405 -50.366054 10.755470 0.000000 -0.000001 0.000000 10.916944 2.715422 -2.051866 5.661715 5.628866 -4.526596 0.000000 0.000000 0.000000 -6.202365 6.409809 -3.316668 0.447317 1.996160 -0.022842 0.000000 0.000000 0.000000 -6.202365 6.409809 -3.316668 -1.837226 -16.093992 -2.699862 -8.760472 4.176573 -44.764992 -24.203697 -31.576866 -19.708429 0.000000 0.000000 0.000000 -6.202365 6.409809 -3.316668 -5.039717 24.119900 1.323477 8.594061 -36.353969 58.117069 -22.083537 47.698459 21.417706 0.000000 0.000000 0.000000 
-3.669830 78.719696 2.610405 0.000000 0.000000 0.000000 11.136629 -50.716979 10.690440 -67.823027 20.777480 48.759867 50.251252 -21.836014 3.419665 3.149025 1.651464 -15.933272 0.000000 0.000000 0.000000 11.136629 -50.716979 10.690440 -33.763288 3.758465 -30.222914 58.693366 5.560504 -6.638256 -30.186134 -5.496946 29.370589 0.000000 0.000000 0.000000 11.136629 -50.716979 10.690440 0.000000 -0.000005 0.000001 10.897221 2.704308 -2.043430 5.549816 5.637693 -4.562777 0.000000 0.000000 0.000000 -6.308808 6.419470 -3.362155 0.422212 2.054977 -0.075706 0.000000 0.000000 0.000000 -6.308808 6.419470 -3.362155 -1.847867 -16.070636 -2.774186 -8.282005 4.767144 -44.394218 -24.638251 -33.133794 -20.826565 0.000000 0.000000 0.000000 -6.308808 6.419470 -3.362155 -4.969658 24.003423 1.112969 9.818349 -37.442397 58.296313 -23.000377 49.695948 22.598046 0.000000 0.000000 0.000000 
-3.716117 78.793915 2.509090 0.000000 0.000000 0.000000 11.079462 -51.054957 10.652385 -67.501134 20.884693 48.937834 49.966044 -21.734721 3.454027 3.176333 1.715384 -16.173278 0.000000 0.000000 0.000000 11.079462 -51.054957 10.652385 -33.963324 3.786614 -30.084654 58.681809 5.711691 -6.628841 -30.052201 -5.274756 29.187430 0.000000 0.000000 0.000000 11.079462 -51.054957 10.652385 0.000000 -0.000001 0.000001 10.894291 2.683169 -2.053475 5.492967 5.620189 -4.582153 0.000000 0.000000 0.000000 -6.365359 6.406198 -3.392832 0.370045 2.094949 -0.057644 0.000000 0.000000 0.000000 -6.365359 6.406198 -3.392832 -1.830498 -16.079990 -2.636737 -7.942253 5.171106 -44.244350 -24.969172 -34.234906 -21.606489 0.000000 0.000000 0.000000 -6.365359 6.406198 -3.392832 -4.911014 23.914686 0.934869 10.894908 -38.569296 58.328921 -24.094848 51.710713 23.925009 0.000000 0.000000 0.000000 
-3.772516 78.861176 2.410494 0.000000 0.000000 0.000000 11.173721 -51.451173 10.735068 -67.252098 21.004997 49.215191 49.679688 -21.644615 3.424048 3.179669 1.787784 -16.398833 0.000000 0.000000 0.000000 11.173721 -51.451173 10.735068 -34.283889 3.861250 -29.917482 58.668204 5.878551 -6.618572 -29.892111 -5.030467 28.997302 0.000000 0.000000 0.000000 11.173721 -51.451173 10.735068 0.000000 -0.000005 0.000000 10.872174 2.668470 -2.053244 5.370468 5.615221 -4.602945 0.000000 0.000000 0.000000 -6.485334 6.402643 -3.425195 0.306858 2.151113 -0.099946 0.000000 0.000000 0.000000 -6.485334 6.402643 -3.425195 -1.832327 -15.909969 -2.693245 -7.601347 5.440239 -43.854558 -25.343781 -35.396421 -22.608134 0.000000 0.000000 0.000000 -6.485334 6.402643 -3.425195 -4.851212 23.775675 0.768369 11.890557 -39.683262 58.329460 -25.251467 53.552709 25.231680 0.000000 0.000000 0.000000 
-3.828351 78.928070 2.314644 0.000000 0.000000 0.000000 11.250008 -51.816882 10.834945 -66.959131 21.156818 49.408178 49.365363 -21.532168 3.425068 3.195238 1.865160 -16.643586 0.000000 0.000000 0.000000 11.250008 -51.816882 10.834945 -34.577406 3.948094 -29.787664 58.674371 6.035198 -6.609878 -29.753564 -4.807894 28.819198 0.000000 0.000000 0.000000 11.250008 -51.816882 10.834945 -0.000001 -0.000003 -0.000000 10.848015 2.650117 -2.076783 5.307897 5.568422 -4.614026 0.000000 0.000000 0.000000 -6.550474 6.363057 -3.445772 0.273297 2.185072 -0.046835 0.000000 0.000000 0.000000 -6.550474 6.363057 -3.445772 -1.767734 -15.863311 -2.307953 -7.275254 5.775649 -44.050919 -25.624507 -36.258756 -23.016057 0.000000 0.000000 0.000000 -6.550474 6.363057 -3.445772 -4.768602 23.636261 0.587993 12.616856 -40.785300 58.199974 -26.477959 55.251941 26.541106 0.000000 0.000000 0.000000 
-3.882607 78.996109 2.218683 0.000000 0.000000 0.000000 11.303708 -52.211769 10.894194 -66.660775 21.284787 49.633817 49.085018 -21.418047 3.436907 3.191108 1.949908 -16.896348 0.000000 0.000000 0.000000 11.303708 -52.211769 10.894194 -34.864892 4.015887 -29.633459 58.659188 6.205513 -6.599468 -29.594841 -4.565497 28.632944 0.000000 0.000000 0.000000 11.303708 -52.211769 10.894194 0.000000 -0.000001 0.000000 10.842098 2.639684 -2.068555 5.287554 5.515834 -4.597275 0.000000 0.000000 0.000000 -6.569711 6.308100 -3.437968 0.207491 2.238328 -0.074596 0.000000 0.000000 0.000000 -6.569711 6.308100 -3.437968 -1.778185 -15.995523 -2.308536 -6.990183 6.173951 -43.710929 -25.996634 -37.298505 -23.847646 0.000000 0.000000 0.000000 -6.569711 6.308100 -3.437968 -4.645112 23.425683 0.308007 13.145890 -41.827532 57.974769 -27.628411 56.724711 27.655028 0.000000 0.000000 0.000000 
-3.936315 79.065849 2.120579 0.000000 0.000000 0.000000 11.333797 -52.618780 10.949720 -66.321328 21.441661 49.788442 48.880140 -22.264205 3.441845 3.170564 3.056811 -17.132187 0.000000 0.000000 0.000000 11.333797 -52.618780 10.949720 -35.147450 4.091879 -29.492767 58.653587 6.384905 -6.588692 -29.436264 -4.317032 28.444456 0.000000 0.000000 0.000000 11.333797 -52.618780 10.949720 0.000000 0.000001 0.000000 10.844215 2.626087 -2.060136 5.321897 5.442596 -4.578762 0.000000 0.000000 0.000000 -6.534551 6.233431 -3.428597 0.115307 2.300485 -0.101825 0.000000 0.000000 0.000000 -6.534551 6.233431 -3.428597 -1.748559 -15.816281 -2.194055 -6.784386 6.134503 -43.362716 -26.286779 -38.066622 -24.621241 0.000000 0.000000 0.000000 -6.534551 6.233431 -3.428597 -4.487501 23.289442 -0.121703 13.590680 -42.905114 57.810626 -28.332149 57.726682 28.097930 0.000000 0.000000 0.000000 
-3.990695 79.131798 2.021870 0.000000 0.000000 0.000000 11.389603 -53.056667 11.042992 -65.967804 21.610211 50.005417 48.582067 -22.130660 3.451542 3.154347 3.165008 -17.406256 0.000000 0.000000 0.000000 11.389603 -53.056667 11.042992 -35.468421 4.195547 -29.358909 58.665540 6.580006 -6.578759 -29.271541 -4.056879 28.253873 0.000000 0.000000 0.000000 11.389603 -53.056667 11.042992 0.000000 -0.000001 0.000000 10.849086 2.613240 -2.053064 5.371035 5.355685 -4.571352 0.000000 0.000000 0.000000 -6.482939 6.146445 -3.429146 0.025260 2.366930 -0.147192 0.000000 0.000000 0.000000 -6.482939 6.146445 -3.429146 -1.756439 -15.966138 -2.165178 -6.645644 6.427178 -42.907023 -26.587234 -38.828830 -25.272036 0.000000 0.000000 0.000000 -6.482939 6.146445 -3.429146 -4.319641 23.154946 -0.587317 13.881959 -43.939816 57.597196 -28.818125 58.482088 28.215525 0.000000 0.000000 0.000000 
-4.045948 79.196289 1.918331 0.000000 0.000000 0.000000 11.450112 -53.540289 11.178234 -65.531239 21.814245 50.162412 48.270296 -21.948084 3.510025 3.118817 3.313470 -17.741976 0.000000 0.000000 0.000000 11.450112 -53.540289 11.178234 -35.832344 4.343112 -29.250575 58.712866 6.802591 -6.567754 -29.103115 -3.775910 28.055728 0.000000 0.000000 0.000000 11.450112 -53.540289 11.178234 0.000000 0.000000 0.000000 10.853214 2.593904 -2.060339 5.464774 5.256861 -4.594122 0.000000 0.000000 0.000000 -6.387153 6.055203 -3.459009 -0.073681 2.429053 -0.175040 0.000000 0.000000 0.000000 -6.387153 6.055203 -3.459009 -1.721999 -15.637112 -2.060676 -6.662515 6.316287 -42.468136 -26.816436 -39.389633 -25.688712 0.000000 0.000000 0.000000 -6.387153 6.055203 -3.459009 -4.169056 22.925472 -0.972686 13.728995 -44.790099 57.036574 -29.274228 59.122930 28.287497 0.000000 0.000000 0.000000 
-4.112678 79.252892 1.803898 0.000000 0.000000 0.000000 11.691907 -54.210125 11.471053 -65.073254 22.029875 50.443160 47.981737 -21.721438 3.538496 3.003340 3.540507 -18.145294 0.000000 0.000000 0.000000 11.691907 -54.210125 11.471053 -36.417196 4.574669 -29.085903 58.774317 7.105243 -6.553009 -28.859305 -3.400320 27.818010 0.000000 0.000000 0.000000 11.691907 -54.210125 11.471053 0.000000 0.000001 0.000000 10.822314 2.590399 -2.075576 5.501344 5.217126 -4.646266 0.000000 0.000000 0.000000 -6.348709 6.027227 -3.508410 -0.154094 2.511519 -0.221684 0.000000 0.000000 0.000000 -6.348709 6.027227 -3.508410 -1.744014 -15.645166 -2.158801 -6.689812 6.589845 -41.789727 -27.069008 -39.981243 -26.087817 0.000000 0.000000 0.000000 -6.348709 6.027227 -3.508410 -4.018466 22.701411 -1.358579 13.476978 -45.529457 56.379141 -29.535900 59.535931 28.129818 0.000000 0.000000 0.000000 
